<mxfile host="Electron" modified="2023-10-12T16:19:23.207Z" agent="Mozilla/5.0 (Macintosh; Intel Mac OS X 10_15_7) AppleWebKit/537.36 (KHTML, like Gecko) draw.io/21.6.8 Chrome/114.0.5735.289 Electron/25.5.0 Safari/537.36" etag="MQP4hGURN97fhmc2yOfu" version="21.6.8" type="device">
  <diagram name="Page-1" id="KLD5bgZjgj3XodnpzzAE">
    <mxGraphModel dx="525" dy="623" grid="1" gridSize="10" guides="1" tooltips="1" connect="1" arrows="1" fold="1" page="1" pageScale="1" pageWidth="350" pageHeight="200" math="0" shadow="0">
      <root>
        <mxCell id="0" />
        <mxCell id="1" parent="0" />
        <mxCell id="nVDo2q8srxc2tVAkid_G-55" value="&lt;span style=&quot;white-space: pre;&quot;&gt;&#x9;&lt;/span&gt;&lt;span style=&quot;white-space: pre;&quot;&gt;&#x9;&lt;/span&gt;&lt;span style=&quot;white-space: pre;&quot;&gt;&#x9;&lt;/span&gt;&lt;span style=&quot;white-space: pre;&quot;&gt;&#x9;&lt;/span&gt;&lt;span style=&quot;white-space: pre;&quot;&gt;&#x9;&lt;/span&gt;&lt;br&gt;&lt;span style=&quot;white-space: pre;&quot;&gt;&#x9;&lt;/span&gt;&lt;span style=&quot;white-space: pre;&quot;&gt;&#x9;&lt;/span&gt;&lt;span style=&quot;white-space: pre;&quot;&gt;&#x9;&lt;/span&gt;&lt;span style=&quot;white-space: pre;&quot;&gt;&#x9;&lt;/span&gt;&lt;span style=&quot;white-space: pre;&quot;&gt;&#x9;&lt;/span&gt;&lt;br&gt;&lt;b&gt;&lt;span style=&quot;white-space: pre;&quot;&gt;&#x9;&lt;/span&gt;&lt;span style=&quot;white-space: pre;&quot;&gt;&#x9;&lt;/span&gt;&lt;span style=&quot;white-space: pre;&quot;&gt;&#x9;&lt;/span&gt;&lt;span style=&quot;white-space: pre;&quot;&gt;&#x9;&lt;/span&gt;&lt;span style=&quot;white-space: pre;&quot;&gt;&#x9;&lt;/span&gt;&lt;br&gt;&lt;span style=&quot;white-space: pre;&quot;&gt;&#x9;&lt;/span&gt;&lt;span style=&quot;white-space: pre;&quot;&gt;&#x9;&lt;/span&gt;&lt;span style=&quot;white-space: pre;&quot;&gt;&#x9;&lt;/span&gt;&lt;span style=&quot;white-space: pre;&quot;&gt;&#x9;&lt;/span&gt;&lt;span style=&quot;white-space: pre;&quot;&gt;&#x9;&lt;/span&gt;&lt;span style=&quot;white-space: pre;&quot;&gt;&#x9;&lt;/span&gt;&lt;br&gt;&lt;br&gt;&lt;span style=&quot;white-space: pre;&quot;&gt;&#x9;&lt;/span&gt;&lt;span style=&quot;white-space: pre;&quot;&gt;&#x9;&lt;/span&gt;&lt;span style=&quot;white-space: pre;&quot;&gt;&#x9;&lt;/span&gt;&lt;span style=&quot;white-space: pre;&quot;&gt;&#x9;&lt;/span&gt;&lt;span style=&quot;white-space: pre;&quot;&gt;&#x9;&lt;/span&gt;&lt;span style=&quot;white-space: pre;&quot;&gt;&#x9;&lt;/span&gt;&lt;span style=&quot;white-space: pre;&quot;&gt;&#x9;&lt;/span&gt;&lt;span style=&quot;white-space: pre;&quot;&gt;&#x9;&lt;/span&gt;MakerDAO&lt;/b&gt;" style="rounded=1;whiteSpace=wrap;html=1;dashed=1;" vertex="1" parent="1">
          <mxGeometry x="60" y="65.5" width="281" height="126" as="geometry" />
        </mxCell>
        <mxCell id="nVDo2q8srxc2tVAkid_G-53" value="&lt;b&gt;&lt;span style=&quot;white-space: pre;&quot;&gt;&#x9;&lt;/span&gt;&lt;span style=&quot;white-space: pre;&quot;&gt;&#x9;&lt;/span&gt;&lt;span style=&quot;white-space: pre;&quot;&gt;&#x9;&lt;/span&gt;&lt;span style=&quot;white-space: pre;&quot;&gt;&#x9;&lt;/span&gt;&lt;span style=&quot;white-space: pre;&quot;&gt;&#x9;&lt;/span&gt;&lt;span style=&quot;white-space: pre;&quot;&gt;&#x9;&lt;/span&gt;&lt;span style=&quot;white-space: pre;&quot;&gt;&#x9;&lt;/span&gt;&lt;span style=&quot;white-space: pre;&quot;&gt;&#x9;&lt;/span&gt;&lt;span style=&quot;white-space: pre;&quot;&gt;&#x9;&lt;/span&gt;&lt;span style=&quot;white-space: pre;&quot;&gt;&#x9;&lt;span style=&quot;white-space: pre;&quot;&gt;&#x9;&lt;/span&gt;&lt;br/&gt;&lt;/span&gt;&lt;span style=&quot;white-space: pre;&quot;&gt;&lt;span style=&quot;white-space: pre;&quot;&gt;&#x9;&lt;/span&gt;&lt;span style=&quot;white-space: pre;&quot;&gt;&#x9;&lt;/span&gt;&lt;span style=&quot;white-space: pre;&quot;&gt;&#x9;&lt;/span&gt;&lt;span style=&quot;white-space: pre;&quot;&gt;&#x9;&lt;/span&gt;&lt;span style=&quot;white-space: pre;&quot;&gt;&#x9;&lt;/span&gt;&lt;span style=&quot;white-space: pre;&quot;&gt;&#x9;&lt;/span&gt;&lt;span style=&quot;white-space: pre;&quot;&gt;&#x9;&lt;/span&gt;&lt;span style=&quot;white-space: pre;&quot;&gt;&#x9;&lt;/span&gt;&lt;span style=&quot;white-space: pre;&quot;&gt;&#x9;&lt;/span&gt;&lt;span style=&quot;white-space: pre;&quot;&gt;&#x9;&lt;/span&gt;&lt;span style=&quot;white-space: pre;&quot;&gt;&#x9;&lt;/span&gt;L&lt;/span&gt;ido&lt;/b&gt;" style="rounded=1;whiteSpace=wrap;html=1;dashed=1;" vertex="1" parent="1">
          <mxGeometry x="11" y="9" width="330" height="52.5" as="geometry" />
        </mxCell>
        <mxCell id="nVDo2q8srxc2tVAkid_G-49" style="edgeStyle=orthogonalEdgeStyle;rounded=0;orthogonalLoop=1;jettySize=auto;html=1;exitX=1;exitY=0.5;exitDx=0;exitDy=0;entryX=0;entryY=0.5;entryDx=0;entryDy=0;" edge="1" parent="1" source="nVDo2q8srxc2tVAkid_G-1" target="nVDo2q8srxc2tVAkid_G-6">
          <mxGeometry relative="1" as="geometry">
            <Array as="points">
              <mxPoint x="20" y="126.5" />
              <mxPoint x="20" y="38.5" />
              <mxPoint x="301" y="38.5" />
              <mxPoint x="301" y="126.5" />
            </Array>
          </mxGeometry>
        </mxCell>
        <mxCell id="nVDo2q8srxc2tVAkid_G-50" style="edgeStyle=orthogonalEdgeStyle;rounded=0;orthogonalLoop=1;jettySize=auto;html=1;entryX=0;entryY=0.5;entryDx=0;entryDy=0;" edge="1" parent="1" source="nVDo2q8srxc2tVAkid_G-1" target="nVDo2q8srxc2tVAkid_G-6">
          <mxGeometry relative="1" as="geometry">
            <Array as="points">
              <mxPoint x="71" y="126.5" />
              <mxPoint x="71" y="88.5" />
              <mxPoint x="221" y="88.5" />
              <mxPoint x="221" y="126.5" />
            </Array>
          </mxGeometry>
        </mxCell>
        <mxCell id="nVDo2q8srxc2tVAkid_G-51" style="edgeStyle=orthogonalEdgeStyle;rounded=0;orthogonalLoop=1;jettySize=auto;html=1;entryX=0;entryY=0.5;entryDx=0;entryDy=0;" edge="1" parent="1" source="nVDo2q8srxc2tVAkid_G-39" target="nVDo2q8srxc2tVAkid_G-6">
          <mxGeometry relative="1" as="geometry" />
        </mxCell>
        <mxCell id="nVDo2q8srxc2tVAkid_G-52" style="edgeStyle=orthogonalEdgeStyle;rounded=0;orthogonalLoop=1;jettySize=auto;html=1;entryX=0;entryY=0.5;entryDx=0;entryDy=0;" edge="1" parent="1" source="nVDo2q8srxc2tVAkid_G-1" target="nVDo2q8srxc2tVAkid_G-6">
          <mxGeometry relative="1" as="geometry">
            <Array as="points">
              <mxPoint x="71" y="126.5" />
              <mxPoint x="71" y="168.5" />
              <mxPoint x="221" y="168.5" />
              <mxPoint x="221" y="126.5" />
            </Array>
          </mxGeometry>
        </mxCell>
        <mxCell id="nVDo2q8srxc2tVAkid_G-1" value="ETH" style="ellipse;whiteSpace=wrap;html=1;aspect=fixed;fontStyle=1;labelBackgroundColor=none;fillColor=#E6E6E6;" vertex="1" parent="1">
          <mxGeometry y="106.5" width="40" height="40" as="geometry" />
        </mxCell>
        <mxCell id="nVDo2q8srxc2tVAkid_G-2" value="wstETH" style="ellipse;whiteSpace=wrap;html=1;aspect=fixed;fontSize=10;fontStyle=1;fillColor=#E6E6E6;" vertex="1" parent="1">
          <mxGeometry x="220" y="18.5" width="40" height="40" as="geometry" />
        </mxCell>
        <mxCell id="nVDo2q8srxc2tVAkid_G-3" value="stETH" style="ellipse;whiteSpace=wrap;html=1;aspect=fixed;fontSize=10;fontStyle=1;fillColor=#E6E6E6;" vertex="1" parent="1">
          <mxGeometry x="100" y="18.5" width="40" height="40" as="geometry" />
        </mxCell>
        <mxCell id="nVDo2q8srxc2tVAkid_G-6" value="DAI" style="ellipse;whiteSpace=wrap;html=1;aspect=fixed;fontSize=11;fontStyle=1;fillColor=#E6E6E6;" vertex="1" parent="1">
          <mxGeometry x="280" y="106.5" width="40" height="40" as="geometry" />
        </mxCell>
        <mxCell id="nVDo2q8srxc2tVAkid_G-34" value="MakerDAO Vault" style="shape=cylinder3;whiteSpace=wrap;html=1;boundedLbl=1;backgroundOutline=1;size=7.5;strokeWidth=2;fontFamily=Times New Roman;fontStyle=0;fontSize=10;" vertex="1" parent="1">
          <mxGeometry x="273" y="65.5" width="60" height="39" as="geometry" />
        </mxCell>
        <mxCell id="nVDo2q8srxc2tVAkid_G-35" value="Lido&lt;br&gt;Pool" style="shape=cylinder3;whiteSpace=wrap;html=1;boundedLbl=1;backgroundOutline=1;size=7.5;strokeWidth=2;fontFamily=Times New Roman;fontStyle=0;fontSize=10;" vertex="1" parent="1">
          <mxGeometry x="150" y="19.5" width="60" height="39" as="geometry" />
        </mxCell>
        <mxCell id="nVDo2q8srxc2tVAkid_G-36" value="Lido&lt;br&gt;Pool" style="shape=cylinder3;whiteSpace=wrap;html=1;boundedLbl=1;backgroundOutline=1;size=7.5;strokeWidth=2;fontFamily=Times New Roman;fontStyle=0;fontSize=10;" vertex="1" parent="1">
          <mxGeometry x="30" y="19.5" width="60" height="39" as="geometry" />
        </mxCell>
        <mxCell id="nVDo2q8srxc2tVAkid_G-38" value="MakerDAO Vault" style="shape=cylinder3;whiteSpace=wrap;html=1;boundedLbl=1;backgroundOutline=1;size=7.5;strokeWidth=2;fontFamily=Times New Roman;fontStyle=0;fontSize=10;" vertex="1" parent="1">
          <mxGeometry x="111" y="67.5" width="60" height="39" as="geometry" />
        </mxCell>
        <mxCell id="nVDo2q8srxc2tVAkid_G-40" value="MakerDAO Vault" style="shape=cylinder3;whiteSpace=wrap;html=1;boundedLbl=1;backgroundOutline=1;size=7.5;strokeWidth=2;fontFamily=Times New Roman;fontStyle=0;fontSize=10;" vertex="1" parent="1">
          <mxGeometry x="111" y="146.5" width="60" height="39" as="geometry" />
        </mxCell>
        <mxCell id="nVDo2q8srxc2tVAkid_G-57" value="" style="edgeStyle=orthogonalEdgeStyle;rounded=0;orthogonalLoop=1;jettySize=auto;html=1;entryX=0;entryY=0.5;entryDx=0;entryDy=0;" edge="1" parent="1" source="nVDo2q8srxc2tVAkid_G-1" target="nVDo2q8srxc2tVAkid_G-39">
          <mxGeometry relative="1" as="geometry">
            <mxPoint x="40" y="126.5" as="sourcePoint" />
            <mxPoint x="280" y="126.5" as="targetPoint" />
          </mxGeometry>
        </mxCell>
        <mxCell id="nVDo2q8srxc2tVAkid_G-39" value="MakerDAO Vault" style="shape=cylinder3;whiteSpace=wrap;html=1;boundedLbl=1;backgroundOutline=1;size=7.5;strokeWidth=2;fontFamily=Times New Roman;fontStyle=0;fontSize=10;" vertex="1" parent="1">
          <mxGeometry x="111" y="107.5" width="60" height="39" as="geometry" />
        </mxCell>
      </root>
    </mxGraphModel>
  </diagram>
</mxfile>
